<?xml version="1.0" encoding="UTF-8"?>
<svg version="1.1" xmlns="http://www.w3.org/2000/svg" width="500" height="500">
<path d="M0 0 C0.99 0.33 1.98 0.66 3 1 C3.4125 0.13375 3.825 -0.7325 4.25 -1.625 C8.91072697 -10.61354487 8.91072697 -10.61354487 12.24609375 -11.796875 C14.4375 -11.75 14.4375 -11.75 18 -11 C18.77187038 -6.02909013 19.2561643 -1.09829473 19.53515625 3.92578125 C19.57813339 4.67224411 19.62111053 5.41870697 19.66539001 6.18778992 C19.75513171 7.76516057 19.84328533 9.3426223 19.92993164 10.92016602 C20.06004072 13.26811981 20.19864276 15.61546351 20.33789062 17.96289062 C20.94753296 28.65161631 21.10754937 39.2952529 21 50 C17.04 50 13.08 50 9 50 C8.63648438 49.04480469 8.27296875 48.08960938 7.8984375 47.10546875 C1.63629174 30.88455233 -6.04429476 15.04786452 -22.3359375 6.8203125 C-36.09040642 0.87595212 -49.75485301 0.69896811 -64 5 C-72.06844708 8.573943 -77.42268657 13.55635615 -81.8125 21.125 C-84.80825676 29.04235715 -85.08659912 39.08871682 -82 47 C-80.84137091 49.14845129 -79.60147612 51.16492649 -78.21875 53.17578125 C-77 55 -77 55 -76.09375 57.10546875 C-74.70982524 59.50262413 -73.49985525 59.87798238 -71 61 C-69.38037786 62.18753706 -67.77790239 63.39860676 -66.1875 64.625 C-55.85820162 72.18800871 -44.41308205 77.33533579 -32.76489258 82.50585938 C3.09962317 98.4834484 3.09962317 98.4834484 12.59954834 107.52183723 C18.81302801 113.18324722 25.18341805 112.85016931 33.21875 112.77294922 C34.64850019 112.78113036 36.07823737 112.79193873 37.50794983 112.80516052 C41.36919471 112.8334882 45.22958287 112.82528106 49.0908699 112.81029272 C53.13350475 112.80088689 57.17593414 112.82538704 61.21850586 112.84622192 C68.86462603 112.88051253 76.51044691 112.88450705 84.15662861 112.87749684 C92.86532423 112.87099657 101.57381056 112.89845322 110.282444 112.92869925 C128.18832385 112.99013085 146.09402404 113.00912401 164 113 C165.21661194 115.43322388 165.23577928 117.21430329 165.38891602 119.93359375 C165.4788961 121.47660156 165.4788961 121.47660156 165.57069397 123.05078125 C165.63115402 124.16839844 165.69161407 125.28601563 165.75390625 126.4375 C165.81907944 127.58734375 165.88425262 128.7371875 165.95140076 129.921875 C166.08877398 132.36300043 166.22396913 134.80424924 166.35717773 137.24560547 C166.56015016 140.95703231 166.77071414 144.6679686 166.98242188 148.37890625 C167.11503986 150.7525787 167.24721512 153.12627594 167.37890625 155.5 C167.44139053 156.60142334 167.50387482 157.70284668 167.56825256 158.83764648 C167.91332712 165.23639945 168.05896326 171.59191716 168 178 C163.38 178 158.76 178 154 178 C153.78085937 176.83984375 153.56171875 175.6796875 153.3359375 174.484375 C150.68240533 161.14662085 147.17489024 147.3252721 135.25 139.3125 C118.58260256 129.68244814 97.52678176 131.74093126 79 131.875 C76.56771203 131.88505346 74.13542003 131.89417511 71.703125 131.90234375 C65.80199378 131.92416138 59.90101629 131.95745016 54 132 C51.39987093 135.89124719 51.69318251 140.02974614 51.68115234 144.53222656 C51.67110672 145.39112488 51.6610611 146.25002319 51.65071106 147.13494873 C51.61985289 149.97016743 51.60283657 152.80529158 51.5859375 155.640625 C51.56722798 157.6078981 51.54765472 159.57516316 51.5272522 161.54241943 C51.47590226 166.71760316 51.43629179 171.89281291 51.39910889 177.06811523 C51.35908723 182.3501633 51.30798649 187.63210284 51.2578125 192.9140625 C51.1610193 203.27596546 51.07662531 213.63792966 51 224 C55.49652121 223.70009697 59.99242955 223.39179662 64.48828125 223.08203125 C65.75514771 222.99763794 67.02201416 222.91324463 68.32727051 222.82629395 C88.43489006 221.6561924 88.43489006 221.6561924 104.875 211.0625 C108.97855365 205.14855504 110.76261266 199.57756312 112.1875 192.625 C112.45336914 191.37783203 112.45336914 191.37783203 112.72460938 190.10546875 C113.15704507 188.07185226 113.57954198 186.03612664 114 184 C117.96 184 121.92 184 126 184 C126 215.68 126 247.36 126 280 C122.04 280 118.08 280 114 280 C113.63648438 278.576875 113.27296875 277.15375 112.8984375 275.6875 C112.39156344 273.79141555 111.88369797 271.89559593 111.375 270 C111.02115234 268.59814453 111.02115234 268.59814453 110.66015625 267.16796875 C108.51234951 259.29267739 105.18989305 252.94617532 98.375 248.1875 C88.36206185 242.72448557 76.88957945 242.37841446 65.75 241.8125 C64.31113793 241.73086819 62.87233473 241.64819196 61.43359375 241.56445312 C57.95632245 241.36429757 54.47847675 241.1781456 51 241 C51.08516674 248.93800641 51.18032788 256.87580878 51.28752708 264.81354523 C51.33702955 268.50114848 51.38335459 272.18872923 51.421875 275.87646484 C51.45932096 279.44927571 51.50582168 283.02187366 51.55806351 286.59449768 C51.58504493 288.59022918 51.60314504 290.58607464 51.62094116 292.58190918 C51.22390974 311.80294812 51.22390974 311.80294812 59.25 328.1875 C66.8167602 333.17468286 74.04035733 333.83371022 82.9375 334.6875 C84.19369141 334.81705078 85.44988281 334.94660156 86.74414062 335.08007812 C89.82841723 335.39671489 92.91408852 335.69971462 96 336 C96 340.29 96 344.58 96 349 C55.74 349 15.48 349 -26 349 C-26 344.71 -26 340.42 -26 336 C-24.17275391 335.74476563 -24.17275391 335.74476563 -22.30859375 335.484375 C-20.68478283 335.24033405 -19.06109095 334.99550011 -17.4375 334.75 C-16.63763672 334.64042969 -15.83777344 334.53085937 -15.01367188 334.41796875 C-8.78719444 333.45222939 -3.76130174 331.76130174 0.8125 327.1875 C7.31273454 315.21338375 5.13308351 298.95649592 5.09765625 285.80078125 C5.09578823 283.75384048 5.09436614 281.70689926 5.09336853 279.65995789 C5.08957362 274.30562071 5.07976958 268.9513112 5.06866455 263.59698486 C5.05838496 258.11999892 5.05385695 252.64300846 5.04882812 247.16601562 C5.03814425 236.44399834 5.0211047 225.72200148 5 215 C4.45336197 215.27529037 3.90672394 215.55058075 3.34352112 215.83421326 C2.26577675 216.37538536 2.26577675 216.37538536 1.16625977 216.92749023 C0.45462173 217.28528061 -0.2570163 217.64307098 -0.99021912 218.01170349 C-22.22407374 228.45331161 -51.50426065 230.09649261 -73.99121094 222.73632812 C-84.69535967 218.8126878 -94.10143986 213.0886835 -103 206 C-103.56589844 206.92683594 -104.13179687 207.85367188 -104.71484375 208.80859375 C-105.45565576 210.01827412 -106.19654518 211.22790709 -106.9375 212.4375 C-107.49727539 213.35499023 -107.49727539 213.35499023 -108.06835938 214.29101562 C-110.88671875 218.88671875 -110.88671875 218.88671875 -112 220 C-114.67058851 220.14115161 -117.32432238 220.04247107 -120 220 C-120.52609688 212.62803571 -121.04795401 205.25578368 -121.56460571 197.88315105 C-121.80471339 194.45865559 -122.04620481 191.03427014 -122.29101562 187.61010742 C-122.57329744 183.66094205 -122.84927829 179.71134775 -123.125 175.76171875 C-123.21249512 174.54981369 -123.29999023 173.33790863 -123.39013672 172.08927917 C-123.87670339 165.0391105 -124.08329459 158.06702539 -124 151 C-120.04 151 -116.08 151 -112 151 C-111.72027344 152.07636719 -111.44054687 153.15273437 -111.15234375 154.26171875 C-106.27206049 172.32645394 -98.09228342 188.41596635 -82 199 C-74.02304843 203.42495049 -65.9264949 206.22265926 -57 208 C-55.2984375 208.3403125 -55.2984375 208.3403125 -53.5625 208.6875 C-37.27668068 210.11608064 -21.66494987 208.57698031 -8 199 C-0.83341574 192.80494212 3.45478746 184.33310869 4.15625 174.8984375 C4.56882282 164.06840092 2.10372864 154.68701191 -5.1875 146.5625 C-18.69261723 134.25783763 -34.71762508 127.07748352 -51.2109375 119.6328125 C-58.58420356 116.29837493 -65.84053972 112.77120634 -73 109 C-73.61020996 108.67966797 -74.22041992 108.35933594 -74.84912109 108.02929688 C-91.03926656 99.43215444 -105.70039119 88.3717351 -111.85668945 70.51513672 C-113.88687065 63.57753786 -114.45838363 57.20805116 -114.375 50 C-114.38660156 48.99710938 -114.39820312 47.99421875 -114.41015625 46.9609375 C-114.38273663 39.88667562 -113.18248113 33.714253 -111 27 C-110.72075684 26.13181641 -110.44151367 25.26363281 -110.15380859 24.36914062 C-105.46082442 10.46966899 -93.8412018 -1.05001154 -81.0625 -7.875 C-53.09983726 -20.63466164 -24.97767834 -16.85993288 0 0 Z " fill="#000000" transform="translate(234,82)"/>
</svg>
