<?xml version="1.0" encoding="UTF-8"?>
<svg version="1.1" xmlns="http://www.w3.org/2000/svg" width="500" height="500">
<path d="M0 0 C0.84175781 0.69738281 1.68351563 1.39476563 2.55078125 2.11328125 C3.95263672 3.17482422 3.95263672 3.17482422 5.3828125 4.2578125 C6.09824219 4.87011719 6.81367188 5.48242188 7.55078125 6.11328125 C7.55078125 6.77328125 7.55078125 7.43328125 7.55078125 8.11328125 C8.54078125 8.44328125 9.53078125 8.77328125 10.55078125 9.11328125 C10.55078125 9.77328125 10.55078125 10.43328125 10.55078125 11.11328125 C11.21078125 11.11328125 11.87078125 11.11328125 12.55078125 11.11328125 C14.15499456 12.88717096 15.60716571 14.65099645 17.05078125 16.55078125 C17.4900293 17.12699219 17.92927734 17.70320313 18.38183594 18.296875 C28.92418501 32.46339105 37.13147014 48.01155729 41.55078125 65.11328125 C33.93709006 68.53191098 26.32165314 71.94660189 18.70401001 75.35641479 C14.729366 77.13599145 10.75668491 78.91984258 6.7858429 80.70788574 C3.79231225 82.05467307 0.79631402 83.39595431 -2.19921875 84.73828125 C-3.84627808 85.48223145 -3.84627808 85.48223145 -5.52661133 86.24121094 C-11.42628432 88.87829313 -17.2786317 91.18981374 -23.44921875 93.11328125 C-23.619375 92.55044434 -23.78953125 91.98760742 -23.96484375 91.40771484 C-31.24864548 67.07842482 -31.24864548 67.07842482 -48.44921875 49.23828125 C-55.22962912 46.69562736 -59.60623237 46.9055415 -66.1484375 49.82421875 C-71.67280865 52.91936727 -74.29203708 57.7474662 -76.00390625 63.640625 C-78.3357165 76.58830826 -71.56230333 89.71322116 -64.44921875 100.11328125 C-60.52987129 105.52614449 -56.25503826 110.56629079 -51.734375 115.484375 C-50.44921875 117.11328125 -50.44921875 117.11328125 -50.44921875 119.11328125 C-48.46921875 120.10328125 -48.46921875 120.10328125 -46.44921875 121.11328125 C-46.44921875 121.77328125 -46.44921875 122.43328125 -46.44921875 123.11328125 C-45.88332031 123.355625 -45.31742187 123.59796875 -44.734375 123.84765625 C-42.00612001 125.35868978 -40.12762627 127.19071601 -37.88671875 129.36328125 C-30.64708709 136.06987443 -22.65984604 141.69644787 -14.68212891 147.48388672 C-1.22002307 157.30742645 12.09061966 167.69749641 24.2421875 179.11328125 C27.20306867 181.67837628 30.33878086 183.87072097 33.55078125 186.11328125 C33.64053223 185.46182129 33.7302832 184.81036133 33.82275391 184.13916016 C39.763024 141.72873869 50.0884101 98.60792814 79.203125 65.78515625 C81.52475952 63.23159623 81.52475952 63.23159623 83.2421875 60.75390625 C83.67402344 60.2125 84.10585938 59.67109375 84.55078125 59.11328125 C85.21078125 59.11328125 85.87078125 59.11328125 86.55078125 59.11328125 C86.88078125 58.12328125 87.21078125 57.13328125 87.55078125 56.11328125 C109.04201922 33.38556109 142.2166478 20.61755623 172.55078125 16.11328125 C173.54078125 16.11328125 174.53078125 16.11328125 175.55078125 16.11328125 C175.55078125 48.78328125 175.55078125 81.45328125 175.55078125 115.11328125 C169.61078125 117.09328125 163.67078125 119.07328125 157.55078125 121.11328125 C145.61773585 126.6878426 135.16100345 131.88528396 126.1796875 141.57421875 C124.55078125 143.11328125 124.55078125 143.11328125 122.55078125 143.11328125 C122.28652344 143.68433594 122.02226562 144.25539062 121.75 144.84375 C120.4812454 147.24487842 118.9986714 149.25898286 117.36328125 151.42578125 C104.49241561 169.75539241 101.56068904 190.04062413 98.55078125 212.11328125 C122.31078125 212.11328125 146.07078125 212.11328125 170.55078125 212.11328125 C170.58171875 226.18984375 170.58171875 226.18984375 170.61328125 240.55078125 C170.62238525 243.51747803 170.63148926 246.4841748 170.64086914 249.54077148 C170.64378805 251.87613886 170.64633667 254.21150674 170.6484375 256.546875 C170.65355347 257.77249146 170.65866943 258.99810791 170.66394043 260.26086426 C170.66406128 261.41799927 170.66418213 262.57513428 170.66430664 263.76733398 C170.66652725 264.77771225 170.66874786 265.78809052 170.67103577 266.8290863 C170.55078125 269.11328125 170.55078125 269.11328125 169.55078125 270.11328125 C166.57209239 270.36177886 163.6175657 270.54136589 160.6328125 270.671875 C159.70161087 270.71412704 158.77040924 270.75637909 157.81098938 270.7999115 C145.95618199 271.28563273 134.10054038 271.22138216 122.23828125 271.17578125 C119.92513119 271.17074878 117.61198006 271.16618901 115.29882812 271.16210938 C109.71612169 271.15125925 104.13345679 271.13466375 98.55078125 271.11328125 C102.98658452 327.80649293 113.59718461 383.4246493 135.55078125 436.11328125 C111.79078125 436.11328125 88.03078125 436.11328125 63.55078125 436.11328125 C56.37573788 416.97983226 56.37573788 416.97983226 54.17578125 409.42578125 C53.89323486 408.46099854 53.61068848 407.49621582 53.31958008 406.50219727 C50.07593693 395.01933002 47.65444853 383.3420042 45.21533203 371.66723633 C45.05246201 370.88919647 44.88959198 370.11115662 44.7217865 369.30953979 C44.41783647 367.85181046 44.11649519 366.39353351 43.81837463 364.93460083 C42.91666832 360.58866986 41.81534126 356.36359836 40.55078125 352.11328125 C39.78507812 352.65855469 39.78507812 352.65855469 39.00390625 353.21484375 C17.10875579 368.35510737 -9.23547138 373.80166997 -35.58203125 369.39453125 C-39.63482699 368.55816945 -43.52216108 367.41658423 -47.44921875 366.11328125 C-48.50625 365.76265625 -49.56328125 365.41203125 -50.65234375 365.05078125 C-76.73078906 355.22016312 -95.59249283 332.90453109 -107.38671875 308.36328125 C-107.75216797 307.60797119 -108.11761719 306.85266113 -108.49414062 306.07446289 C-111.18690834 300.25544218 -112.91525251 294.33084103 -114.44921875 288.11328125 C-98.29530006 280.44909981 -82.13516453 272.79246571 -65.84872437 265.41293335 C-64.58318314 264.8385265 -63.31887315 264.26139915 -62.05581665 263.68154907 C-60.30508458 262.87886791 -58.5491543 262.08755327 -56.79296875 261.296875 C-55.80490234 260.84884521 -54.81683594 260.40081543 -53.79882812 259.93920898 C-53.02345703 259.66665283 -52.24808594 259.39409668 -51.44921875 259.11328125 C-49.44921875 260.11328125 -49.44921875 260.11328125 -48.1875 263.69140625 C-47.70970255 265.24792139 -47.23461878 266.80527119 -46.76171875 268.36328125 C-42.46581169 281.75835131 -36.31821455 296.81552321 -23.13671875 303.67578125 C-15.01761809 306.84085439 -8.51786659 307.17888695 -0.26171875 304.05078125 C5.96532477 301.2505948 9.70584209 297.9252984 12.671875 291.796875 C16.57603581 279.87617065 11.98487448 268.29077402 6.859375 257.578125 C2.34257999 249.06316488 -3.30646051 242.31036842 -10.08300781 235.49414062 C-11.24456099 234.32013334 -12.37750589 233.11793154 -13.50390625 231.91015625 C-19.04973058 226.05490825 -25.44229604 221.27894293 -31.81835938 216.37695312 C-33.93155705 214.73954128 -36.00261523 213.05288696 -38.07421875 211.36328125 C-47.79739277 203.55915474 -57.91020026 196.23110276 -67.9140625 188.79296875 C-81.53891111 178.65016781 -94.19715802 167.87674534 -106.44921875 156.11328125 C-107.47402344 155.1394751 -107.47402344 155.1394751 -108.51953125 154.14599609 C-131.02821411 132.69107048 -150.97840367 106.74888634 -151.80297852 74.35571289 C-151.9917478 49.98277721 -143.4102629 29.52392801 -126.4140625 11.9921875 C-93.35456945 -20.78240438 -37.64778994 -29.9797818 0 0 Z " fill="#000000" transform="translate(219.44921875,35.88671875)"/>
</svg>
